<?xml version="1.0" standalone="no"?>
<!DOCTYPE svg PUBLIC "-//W3C//DTD SVG 20010904//EN"
 "http://www.w3.org/TR/2001/REC-SVG-20010904/DTD/svg10.dtd">
<svg version="1.0" xmlns="http://www.w3.org/2000/svg"
 width="182.000000pt" height="44.000000pt" viewBox="0 0 182.000000 44.000000"
 preserveAspectRatio="xMidYMid meet">

<g transform="translate(0.000000,44.000000) scale(0.100000,-0.100000)"
fill="#000000" stroke="none">
<path d="M389 411 c-16 -16 -29 -39 -29 -50 0 -15 -8 -20 -32 -23 l-33 -3 -12
-125 c-6 -69 -14 -137 -17 -152 -5 -26 -3 -27 47 -32 209 -21 287 -23 342 -11
31 8 59 15 61 17 2 2 1 14 -3 26 -4 16 -13 22 -35 22 -22 0 -29 -4 -25 -14 3
-8 0 -17 -7 -19 -10 -4 -12 1 -9 14 4 15 0 19 -21 19 -22 0 -26 -4 -26 -31 l0
-31 -62 6 c-35 3 -102 8 -150 12 l-88 6 1 42 c0 22 6 86 12 141 13 113 25 126
72 79 20 -20 29 -24 38 -15 9 10 7 16 -7 27 -18 13 -16 14 27 14 33 0 47 -4
47 -14 0 -7 7 -19 15 -26 13 -11 18 -11 28 0 9 10 9 13 0 17 -29 11 -10 24 30
21 l42 -3 -2 -67 c-1 -65 0 -68 22 -68 22 0 24 5 28 58 l3 57 2 -57 c2 -54 4
-58 27 -58 24 0 24 1 19 68 -7 89 -10 95 -31 84 -24 -13 -83 -3 -83 14 0 7 -5
24 -11 38 -13 27 -64 52 -74 35 -4 -5 -13 -5 -25 1 -30 16 -50 12 -81 -19z
m79 -3 c15 -15 16 -68 1 -68 -7 0 -10 12 -7 30 3 17 1 30 -4 30 -5 0 -11 -13
-14 -30 -5 -25 -11 -30 -35 -30 -35 0 -37 17 -8 54 22 28 48 33 67 14z m76
-10 c26 -37 21 -58 -14 -58 -25 0 -30 4 -30 24 0 13 -3 31 -6 40 -10 25 32 20
50 -6z"/>
<path d="M483 260 c-86 -39 -165 -147 -138 -190 23 -37 90 -29 153 17 24 18
48 25 83 27 27 0 49 3 50 6 0 3 2 15 5 28 4 25 -13 31 -22 7 -9 -22 -24 -18
-24 6 0 15 -4 19 -16 15 -9 -3 -20 -6 -25 -6 -4 0 -16 -14 -24 -31 -18 -33
-95 -75 -121 -65 -22 9 -16 59 11 96 32 44 108 96 114 79 2 -7 -8 -22 -23 -33
-14 -12 -38 -30 -53 -42 -29 -23 -25 -45 7 -37 27 7 100 88 100 112 0 10 -7
22 -16 25 -19 7 -11 9 -61 -14z m77 -125 c0 -8 -4 -15 -10 -15 -5 0 -7 7 -4
15 4 8 8 15 10 15 2 0 4 -7 4 -15z"/>
<path d="M775 170 c-16 -17 -25 -30 -21 -30 5 0 1 -12 -8 -26 -10 -14 -15 -31
-13 -37 2 -7 9 -2 16 11 8 15 21 22 40 22 16 0 40 9 55 21 l26 20 -2 -23 c-2
-16 1 -22 12 -19 35 8 75 7 81 -2 4 -6 16 -3 30 8 15 10 17 15 7 12 -15 -5
-16 -1 -11 25 6 28 4 30 -18 23 -13 -4 -33 -16 -45 -26 -28 -26 -53 -25 -29 1
10 11 16 20 14 21 -35 7 -53 3 -65 -16 -14 -21 -71 -34 -58 -13 3 4 13 7 22 6
9 -2 18 5 20 15 3 17 1 17 -20 6 -21 -11 -22 -11 -9 5 25 30 5 27 -24 -4z
m180 -30 c-10 -11 -23 -20 -29 -20 -6 1 0 10 13 20 30 26 39 26 16 0z"/>
<path d="M1385 190 c-3 -5 -2 -10 4 -10 5 0 13 5 16 10 3 6 2 10 -4 10 -5 0
-13 -4 -16 -10z"/>
<path d="M666 167 c-21 -16 -29 -57 -11 -57 6 0 16 5 23 12 9 9 12 9 12 0 0
-17 22 -15 46 4 18 14 18 15 -6 8 -22 -6 -23 -5 -11 10 17 20 7 33 -13 17 -11
-10 -15 -9 -18 4 -3 14 -5 14 -22 2z"/>
<path d="M1069 161 c-20 -16 -22 -23 -12 -38 6 -10 17 -16 25 -14 7 2 32 5 55
5 23 1 45 4 49 8 4 4 13 3 21 -4 17 -13 22 -8 29 26 5 28 -13 36 -22 11 -9
-22 -24 -18 -24 5 0 29 -24 25 -63 -10 -35 -31 -57 -38 -57 -20 0 6 11 15 25
20 14 5 25 14 25 20 0 16 -26 12 -51 -9z m87 -38 c-10 -10 -19 5 -10 18 6 11
8 11 12 0 2 -7 1 -15 -2 -18z"/>
<path d="M1266 167 c-21 -16 -29 -57 -11 -57 6 0 16 5 23 12 7 7 12 8 12 1 0
-6 28 -10 75 -9 l74 2 -19 -21 c-34 -36 -22 -41 14 -6 25 25 39 31 57 26 26
-6 93 14 72 22 -7 3 -13 14 -13 25 0 15 -4 18 -22 13 -13 -4 -31 -17 -41 -29
-14 -15 -17 -16 -14 -4 13 38 -42 41 -72 4 -7 -9 -20 -16 -29 -16 -13 0 -12 3
3 20 14 16 15 20 4 20 -8 0 -22 -9 -32 -20 -9 -11 -22 -20 -28 -20 -8 0 -8 5
1 15 16 20 5 32 -14 16 -11 -10 -15 -9 -18 4 -3 14 -5 14 -22 2z m184 -22 c-7
-8 -20 -15 -29 -15 -13 1 -13 3 3 15 26 19 42 19 26 0z m66 -22 c-10 -10 -19
5 -10 18 6 11 8 11 12 0 2 -7 1 -15 -2 -18z"/>
</g>
</svg>
